<svg width="250" height="250" viewBox="0 0 250 250" fill="none" xmlns="http://www.w3.org/2000/svg">
<g clip-path="url(#clip0_3_27)">
<path d="M120.238 127.86H110.338C110.338 137.34 110.338 146.1 110.338 154.14C110.458 162.06 110.578 169.86 110.698 177.54H121.678C133.198 177.54 141.778 175.44 147.418 171.24C153.058 167.04 155.878 160.98 155.878 153.06C155.878 144.66 153.058 138.36 147.418 134.16C141.778 129.96 132.718 127.86 120.238 127.86ZM123.118 73.86H110.698C110.578 81.54 110.458 89.34 110.338 97.26C110.338 105.06 110.338 112.5 110.338 119.58H119.698C130.618 119.58 138.538 117.72 143.458 114C148.378 110.28 150.838 104.34 150.838 96.18C150.838 88.02 148.498 82.26 143.818 78.9C139.258 75.54 132.358 73.86 123.118 73.86ZM76.3184 72.96V65.58H128.518C140.998 65.58 150.658 68.34 157.498 73.86C164.338 79.38 167.758 86.4 167.758 94.92C167.758 101.28 165.598 107.1 161.278 112.38C156.958 117.66 149.818 121.32 139.858 123.36C151.858 125.04 160.498 128.58 165.778 133.98C171.178 139.38 173.878 145.74 173.878 153.06C173.878 158.46 172.258 163.68 169.018 168.72C165.898 173.76 160.798 177.9 153.718 181.14C146.638 184.38 137.338 186 125.818 186H76.3184V178.62L92.8784 176.64C93.1184 169.08 93.2384 161.4 93.2384 153.6C93.2384 145.8 93.2384 138 93.2384 130.2V121.38C93.2384 113.58 93.2384 105.84 93.2384 98.16C93.2384 90.36 93.1184 82.62 92.8784 74.94L76.3184 72.96Z" fill="white"/>
</g>
<defs>
<clipPath id="clip0_3_27">
<rect width="250" height="250" fill="white"/>
</clipPath>
</defs>
</svg>
